<svg id="Layer_1" data-name="Layer 1" xmlns="http://www.w3.org/2000/svg" viewBox="0 0 327.04 350.42"><defs><style>.cls-1{fill:#ffffff;}</style></defs><path class="cls-1" d="M304.45,58.92H87.67A34.16,34.16,0,0,0,53.89,88.63H266.05a44,44,0,0,1,44,44V365.53a34.17,34.17,0,0,0,28.49-33.59V93A34.16,34.16,0,0,0,304.45,58.92Z" transform="translate(-11.48 -58.92)"/><path class="cls-1" d="M262.33,102.25H45.55a34.17,34.17,0,0,0-34.07,34.06v239a34.16,34.16,0,0,0,34.07,34.05H262.33a34.16,34.16,0,0,0,34.07-34.05v-239A34.17,34.17,0,0,0,262.33,102.25Zm-28.88,24.48c4.31-3.26,9.91-4.91,16.64-4.91A34.74,34.74,0,0,1,267.44,126l2.19,1.23-5.95,10.14-2-.93a28,28,0,0,0-11.68-2.8,13.67,13.67,0,0,0-7.73,1.93c-2.14,1.45-2.39,2.8-2.39,3.69,0,4,5.89,6.54,10.82,8,7.26,2.15,12.31,4.63,15.43,7.58a16.29,16.29,0,0,1,5,12.3c0,5.81-2.54,10.57-7.53,14.14-4.74,3.39-10.67,5.11-17.64,5.11a40.33,40.33,0,0,1-20.52-5.52l-2-1.19,5.91-11.48,2.33,1.61a25.61,25.61,0,0,0,14.85,4.75c3.74,0,6.65-.72,8.66-2.14a5.65,5.65,0,0,0,2.63-4.92c0-3.58-3.64-6.48-10.82-8.61-13.44-4-20.26-10.35-20.26-19C226.63,134.57,228.92,130.15,233.45,126.73ZM101,122.91h53.3l10.57,39.76,13.42-39.76H189.7l13.42,39.76,10.57-39.76H228l-18.8,62.41H197.94L184,143.68l-14,41.64H158.81l-15.75-52.26v1.32H114.21v12.43h25.7v11.47h-25.7v15.57h28.85v11.47H101Zm-61.9,0h12L79.62,163v-40.1H92.83v62.41H81.2L52.31,144.1v41.22H39.09ZM257.38,378.38H48a14.24,14.24,0,1,1,0-28.48H257.38a14.24,14.24,0,1,1,0,28.48Zm0-49.53H48a14.24,14.24,0,1,1,0-28.48H257.38a14.24,14.24,0,1,1,0,28.48Zm0-49.53H48a14.24,14.24,0,0,1,0-28.48H257.38a14.24,14.24,0,1,1,0,28.48Zm0-49.53H48a14.24,14.24,0,0,1,0-28.48H257.38a14.24,14.24,0,1,1,0,28.48Z" transform="translate(-11.48 -58.92)"/></svg>